<svg xmlns="http://www.w3.org/2000/svg" x="0px" y="0px" width="100" height="100" viewBox="0 0 48 48">
<path d="M43.847,24c-0.293-1.912-0.958-3.441-1.539-4.479C41.439,17.966,39.774,17,37.964,17H33v-4.964	c0-1.81-0.966-3.475-2.521-4.344C29.101,6.92,26.857,6,24,6s-5.101,0.92-6.479,1.692C15.966,8.561,15,10.226,15,12.036V17h-4.964	c-1.81,0-3.475,0.966-4.344,2.521C5.111,20.559,4.446,22.088,4.153,24H4v2c0,2.857,0.92,5.101,1.692,6.479	C6.561,34.034,8.226,35,10.036,35H15v4.964c0,1.81,0.966,3.475,2.521,4.344C18.899,45.08,21.143,46,24,46s5.101-0.92,6.479-1.692	C32.034,43.439,33,41.774,33,39.964V35h4.964c1.81,0,3.475-0.966,4.344-2.521C43.08,31.101,44,28.857,44,26v-2H43.847z"></path><path fill="#fff" d="M41.436,18.009C40.735,16.757,39.399,16,37.964,16H36h-3h-1v-4v-1.964	c0-1.434-0.757-2.771-2.009-3.471C28.614,5.793,26.571,5,24,5s-4.614,0.793-5.991,1.564C16.757,7.265,16,8.601,16,10.036V12v3v1h-3	h-2.964c-1.435,0-2.771,0.757-3.471,2.009C5.794,19.386,5,21.429,5,24s0.794,4.614,1.564,5.991C7.265,31.243,8.601,32,10.036,32H13	h2h1v4v1.964c0,1.434,0.757,2.771,2.009,3.471C19.386,42.206,21.429,43,24,43s4.614-0.794,5.991-1.564	C31.243,40.735,32,39.399,32,37.964V36v-3v-1h4h1.964c1.435,0,2.771-0.757,3.471-2.009C42.206,28.614,43,26.571,43,24	S42.206,19.386,41.436,18.009z"></path><circle cx="20.5" cy="10.5" r="1.5"></circle><circle cx="27.5" cy="37.5" r="1.5"></circle><path d="M15,33h-4.964c-1.81,0-3.475-0.966-4.344-2.521C4.92,29.101,4,26.857,4,24s0.92-5.101,1.692-6.479	C6.561,15.966,8.226,15,10.036,15H23c0.552,0,1,0.448,1,1s-0.448,1-1,1H10.036c-1.086,0-2.082,0.574-2.599,1.497	C6.781,19.668,6,21.574,6,24s0.781,4.332,1.437,5.503C7.954,30.426,8.949,31,10.036,31H15c0.552,0,1,0.448,1,1S15.552,33,15,33z"></path><path d="M37.964,33H25c-0.552,0-1-0.448-1-1s0.448-1,1-1h12.964c1.086,0,2.082-0.574,2.599-1.497C41.219,28.332,42,26.426,42,24	s-0.781-4.332-1.437-5.503C40.046,17.574,39.051,17,37.964,17H33c-0.552,0-1-0.448-1-1s0.448-1,1-1h4.964	c1.81,0,3.475,0.966,4.344,2.521C43.08,18.899,44,21.143,44,24s-0.92,5.101-1.692,6.479C41.439,32.034,39.774,33,37.964,33z"></path><path d="M24,44c-2.857,0-5.101-0.92-6.479-1.692C15.966,41.439,15,39.774,15,37.964V29c0-3.309,2.691-6,6-6h6c2.206,0,4-1.794,4-4	v-8.964c0-1.086-0.574-2.082-1.497-2.599C28.332,6.781,26.426,6,24,6s-4.332,0.781-5.503,1.437C17.574,7.954,17,8.949,17,10.036V15	c0,0.552-0.448,1-1,1s-1-0.448-1-1v-4.964c0-1.81,0.966-3.475,2.521-4.344C18.899,4.92,21.143,4,24,4s5.101,0.92,6.479,1.692	C32.034,6.561,33,8.226,33,10.036V19c0,3.309-2.691,6-6,6h-6c-2.206,0-4,1.794-4,4v8.964c0,1.086,0.574,2.082,1.497,2.599	C19.668,41.219,21.574,42,24,42s4.332-0.781,5.503-1.437C30.426,40.046,31,39.051,31,37.964V33c0-0.552,0.448-1,1-1s1,0.448,1,1	v4.964c0,1.81-0.966,3.475-2.521,4.344C29.101,43.08,26.857,44,24,44z"></path>
</svg>